<svg width="64" height="64" xmlns="http://www.w3.org/2000/svg" xmlns:xlink="http://www.w3.org/1999/xlink"><svg fill="none" height="32" stroke="#000" stroke-linecap="round" stroke-linejoin="round" stroke-width="2" width="32" viewBox="-4 -4 32 32" id="favorite" xmlns="http://www.w3.org/2000/svg"><path d="M12 2l3.09 6.26L22 9.27l-5 4.87 1.18 6.88L12 17.77l-6.18 3.25L7 14.14 2 9.27l6.91-1.01L12 2z"/></svg><svg height="32" width="32" viewBox="-4 -4 32 32" id="refresh" x="32" xmlns="http://www.w3.org/2000/svg"><path fill="none" stroke="#000" stroke-linecap="round" stroke-linejoin="round" stroke-width="2" d="M23 4v6h-6"/><path d="M20.49 15a9 9 0 11-2.12-9.36L23 10" fill="none" stroke="#000" stroke-linecap="round" stroke-linejoin="round" stroke-width="2"/></svg><svg height="32" width="32" viewBox="-4 -4 32 32" id="user" y="32" xmlns="http://www.w3.org/2000/svg"><path d="M20 21v-2a4 4 0 00-4-4H8a4 4 0 00-4 4v2" fill="none" stroke="#000" stroke-linecap="round" stroke-linejoin="round" stroke-width="2"/><circle cx="12" cy="7" fill="none" r="4" stroke="#000" stroke-linecap="round" stroke-linejoin="round" stroke-width="2"/></svg></svg>