<?xml version="1.0" encoding="utf-8"?>
<!-- Generator: Adobe Illustrator 20.1.0, SVG Export Plug-In . SVG Version: 6.00 Build 0)  -->
<svg version="1.1" id="Layer_1" xmlns="http://www.w3.org/2000/svg" xmlns:xlink="http://www.w3.org/1999/xlink" x="0px" y="0px"
	 viewBox="0 0 24 19.5" style="enable-background:new 0 0 24 19.5;" xml:space="preserve">
<path d="M24,2.3c-0.9,0.4-1.8,0.7-2.8,0.8c1-0.6,1.8-1.6,2.2-2.7c-1,0.6-2,1-3.1,1.2c-1-1-2.3-1.6-3.7-1.6c-2.7,0-4.9,2.2-4.9,4.9
	c0,0.4,0,0.8,0.1,1.1C7.7,5.8,4.1,3.9,1.7,0.9C1.2,1.6,1,2.5,1,3.4c0,1.7,0.9,3.2,2.2,4.1C2.4,7.4,1.6,7.2,1,6.9c0,0,0,0,0,0.1
	c0,2.4,1.7,4.4,3.9,4.8C4.5,11.9,4.1,12,3.6,12c-0.3,0-0.6,0-0.9-0.1c0.6,2,2.4,3.4,4.6,3.4c-1.7,1.3-3.8,2.1-6.1,2.1
	c-0.4,0-0.8,0-1.2-0.1c2.2,1.4,4.8,2.2,7.5,2.2c9.1,0,14-7.5,14-14c0-0.2,0-0.4,0-0.6C22.5,4.2,23.3,3.3,24,2.3"/>
</svg>
