<?xml version="1.0" encoding="utf-8"?>
<!-- Generator: Adobe Illustrator 20.1.0, SVG Export Plug-In . SVG Version: 6.00 Build 0)  -->
<svg version="1.1" id="Layer_1" xmlns="http://www.w3.org/2000/svg" xmlns:xlink="http://www.w3.org/1999/xlink" x="0px" y="0px"
	 viewBox="0 0 85.8 60" style="enable-background:new 0 0 85.8 60;" xml:space="preserve">
<path d="M84,9.4c-1-3.7-3.9-6.6-7.6-7.6C69.7,0,42.9,0,42.9,0S16.1,0,9.4,1.8c-3.7,1-6.6,3.9-7.6,7.6C0,16.1,0,30,0,30
	s0,13.9,1.8,20.6c1,3.7,3.9,6.6,7.6,7.6C16.1,60,42.9,60,42.9,60s26.8,0,33.5-1.8c3.7-1,6.6-3.9,7.6-7.6c1.8-6.7,1.8-20.6,1.8-20.6
	S85.8,16.1,84,9.4z M34.3,42.9V17.1L56.6,30L34.3,42.9z"/>
</svg>
